# xmcd CD database file
#
# Track frame offsets:
#	180
#	12192
#	30110
#	63750
#	85927
#	108950
#	137857
#	173627
#	198176
#	215079
#	236880
#	258943
#	276007
#
# Disc length: 4018 seconds
#
# Revision: 0
# Processed by: cddbd v1.5.1PL2 Copyright (c) Steve Scherf et al.
# Submitted via: CDex 1.51
#
DISCID=a80fb00d
DTITLE=Steve Houben - Steve Houben invite...
DYEAR=1900
DGENRE=Jazz
TTITLE0=Crazy Rhythm
TTITLE1=Mack The Knife
TTITLE2=Old Folks
TTITLE3=Innocence
TTITLE4=Morning
TTITLE5=Inlet
TTITLE6=Let's Get It Out
TTITLE7=I've Got The World On A String
TTITLE8=Anthroplogogy
TTITLE9=We'll Be Together Again
TTITLE10=Line For Lyons
TTITLE11=Dribble
TTITLE12=Miniatuur I
EXTD=
EXTT0=
EXTT1=
EXTT2=
EXTT3=
EXTT4=
EXTT5=
EXTT6=
EXTT7=
EXTT8=
EXTT9=
EXTT10=
EXTT11=
EXTT12=
PLAYORDER=
